<?xml version="1.0" encoding="UTF-8" standalone="no"?>
<svg width="85px" height="60px" viewBox="0 0 85 60" version="1.1" xmlns="http://www.w3.org/2000/svg" xmlns:xlink="http://www.w3.org/1999/xlink">
    <title>dlr_signet_weiss</title>
    <g id="Weiß" stroke="none" stroke-width="1" fill="none" fill-rule="evenodd">
        <g id="dlr_signet_weiss" fill-rule="nonzero" fill="#FFFFFF">
            <path d="M61.5111236,19.9085393 L61.5111236,0.271685393 L38.6337079,19.9085393 L19.0030337,19.9085393 L0.300449438,35.9413483 L23.3288764,35.9426966 L23.3288764,55.6314607 L46.3085393,35.9359551 L65.7693258,35.9359551 L84.4577528,19.9085393 L61.5111236,19.9085393 L61.5111236,19.9085393 Z M56.8116854,10.0220225 L56.8116854,19.9206742 L45.2640449,19.9206742 L56.8116854,10.0220225 L56.8116854,10.0220225 Z M11.6553933,31.894382 L20.905618,23.9561798 L33.8768539,23.9561798 L24.6203371,31.894382 L11.6553933,31.894382 L11.6553933,31.894382 Z M27.9921348,45.9741573 L27.9921348,35.9352809 L39.6782022,35.9352809 L27.9921348,45.9741573 L27.9921348,45.9741573 Z M44.4193258,31.894382 L31.3025843,31.894382 L40.552809,23.9561798 L53.6719101,23.9561798 L44.4193258,31.894382 L44.4193258,31.894382 Z M63.8470787,31.894382 L51.0716854,31.894382 L60.3219101,23.9561798 L73.1035955,23.9561798 L63.8470787,31.894382 L63.8470787,31.894382 Z" id="Fill-1"></path>
            <path d="M50.2104494,47.7303371 L46.3895506,47.7303371 L46.3895506,59.7026966 L50.2104494,59.7026966 C54.4914607,59.7026966 58.2746067,58.4676404 58.2746067,53.7168539 C58.2746067,48.9674157 54.4914607,47.7303371 50.2104494,47.7303371 L50.2104494,47.7303371 Z M50.75,57.8157303 L49.1919101,57.8157303 L49.1919101,49.6179775 L50.75,49.6179775 C53.0906742,49.6179775 55.3526966,51.1105618 55.3526966,53.7168539 C55.3526966,56.3238202 53.0906742,57.8157303 50.75,57.8157303 L50.75,57.8157303 Z" id="Fill-2"></path>
            <polyline id="Fill-3" points="61.2405618 47.7303371 64.0437079 47.7303371 64.0437079 57.8157303 69.4651685 57.8157303 69.4651685 59.7026966 61.2405618 59.7026966 61.2405618 47.7303371"></polyline>
            <path d="M80.1806742,55.0193258 C79.9014607,54.4894382 79.4610112,53.8361798 78.6996629,53.7849438 L78.6996629,53.7505618 C80.4795506,53.545618 81.5822472,52.3786517 81.5822472,50.9723596 C81.5822472,47.6453933 77.9980899,47.7303371 74.9967416,47.7303371 L71.9749438,47.7303371 L71.9749438,59.7026966 L74.7780899,59.7026966 L74.7780899,54.7301124 L75.6778652,54.7301124 C76.8576404,54.7301124 77.2170787,55.0719101 77.6197753,55.9631461 L79.2997753,59.7026966 L82.4206742,59.7026966 L80.1806742,55.0193258 L80.1806742,55.0193258 Z M75.7006742,52.8417978 L74.7780899,52.8417978 L74.7780899,49.6179775 L75.7006742,49.6179775 C77.0983146,49.6179775 78.6603371,49.7386517 78.6603371,51.1793258 C78.6603371,52.6698876 77.0794382,52.8417978 75.7006742,52.8417978 L75.7006742,52.8417978 Z" id="Fill-4"></path>
        </g>
    </g>
</svg>